<svg width="64" height="64" viewBox="0 0 64 64" fill="none" xmlns="http://www.w3.org/2000/svg">
  <defs>
    <linearGradient id="sun-grad" x1="16" y1="16" x2="48" y2="48" gradientUnits="userSpaceOnUse">
      <stop stop-color="#FFD700" />
      <stop offset="1" stop-color="#FF8C00" />
    </linearGradient>
    <linearGradient id="cloud-grad" x1="20" y1="36" x2="60" y2="60" gradientUnits="userSpaceOnUse">
      <stop stop-color="#FFFFFF" />
      <stop offset="1" stop-color="#E0E6ED" />
    </linearGradient>
    <filter id="glow" x="-20%" y="-20%" width="140%" height="140%">
      <feGaussianBlur stdDeviation="3" result="blur" />
      <feComposite in="SourceGraphic" in2="blur" operator="over" />
    </filter>
  </defs>
  
  <circle cx="28" cy="28" r="16" fill="url(#sun-grad)" filter="url(#glow)" />
  <path d="M46 52H24C17.3726 52 12 46.6274 12 40C12 34.1481 16.1837 29.2559 21.7584 28.1997C23.0189 22.4552 28.0264 18 34 18C41.732 18 48 24.268 48 32C48 32.2039 47.9956 32.4068 47.9868 32.6083C52.5186 33.4357 56 37.3879 56 42C56 47.5228 51.5228 52 46 52Z" fill="url(#cloud-grad)" filter="url(#glow)"/>
</svg>
